<svg xmlns="http://www.w3.org/2000/svg" width="300" height="100" version="1.2" viewBox="0 0 303.75 113.25"><defs><clipPath id="a"><path d="M50 19.79h37.3V94H50Zm0 0"/></clipPath><clipPath id="b"><path d="M70 99h6v7.96h-6Zm0 0"/></clipPath><clipPath id="c"><path d="M70 104h6v2.96h-6Zm0 0"/></clipPath><clipPath id="d"><path d="M1 99h8v7.96H1Zm0 0"/></clipPath><clipPath id="e"><path d="M1 101h8v5.96H1Zm0 0"/></clipPath><clipPath id="f"><path d="M.875 101H9v5.96H.875Zm0 0"/></clipPath><clipPath id="g"><path d="M12 102h9v4.96h-9Zm0 0"/></clipPath><clipPath id="h"><path d="M12 104h9v2.96h-9Zm0 0"/></clipPath></defs><g clip-path="url(#a)"><path d="M87.14 93.129H50.806V19.91H87.14V93.13" style="stroke:none;fill-rule:nonzero;fill:#c1ff72;fill-opacity:1"/><path d="M50.906 93.027h36.13V20.012h-36.13Zm36.235.207H50.8a.104.104 0 0 1-.102-.105V19.906c0-.054.047-.101.102-.101h36.34a.1.1 0 0 1 .101.101V93.13a.102.102 0 0 1-.101.105" style="stroke:none;fill-rule:nonzero;fill:#000;fill-opacity:1"/></g><path d="M54.566 50.71h12.125V24.364H54.566Zm12.23.208H54.462a.099.099 0 0 1-.102-.102V24.258c0-.059.043-.106.102-.106h12.336c.055 0 .101.047.101.106v26.558a.1.1 0 0 1-.101.102" style="stroke:none;fill-rule:nonzero;fill:#000;fill-opacity:1"/><path d="M55.5 49.984a.104.104 0 0 1-.105-.101V25.297c0-.059.046-.106.105-.106h10.05c.055 0 .102.047.102.106a.1.1 0 0 1-.101.101h-9.946v24.485a.104.104 0 0 1-.105.101M70.598 50.71h12.129V24.364h-12.13Zm12.23.208H70.496a.102.102 0 0 1-.105-.102V24.258c0-.059.046-.106.105-.106h12.332c.059 0 .106.047.106.106v26.558a.102.102 0 0 1-.106.102" style="stroke:none;fill-rule:nonzero;fill:#000;fill-opacity:1"/><path d="M71.535 50.012a.105.105 0 0 1-.105-.106v-24.61c0-.058.047-.105.105-.105H81.97c.058 0 .105.047.105.106a.104.104 0 0 1-.105.101H71.637v24.508a.104.104 0 0 1-.102.106M54.566 88.555h12.125V62.203H54.566Zm12.23.207H54.462a.1.1 0 0 1-.102-.102V62.102c0-.059.043-.106.102-.106h12.336c.055 0 .101.047.101.106V88.66a.103.103 0 0 1-.101.102" style="stroke:none;fill-rule:nonzero;fill:#000;fill-opacity:1"/><path d="M55.5 72.355a.104.104 0 0 1-.105-.101V63.14c0-.059.046-.106.105-.106h8.16c.055 0 .102.047.102.106a.103.103 0 0 1-.102.101h-8.055v9.012a.104.104 0 0 1-.105.101" style="stroke:none;fill-rule:nonzero;fill:#000;fill-opacity:1"/><path d="M55.5 87.867a.105.105 0 0 1-.105-.105V72.254a.105.105 0 1 1 .21 0v15.508a.105.105 0 0 1-.105.105M70.598 88.555h12.129V62.203h-12.13Zm12.23.207H70.496a.104.104 0 0 1-.105-.102V62.102c0-.059.046-.106.105-.106h12.332c.059 0 .106.047.106.106V88.66a.104.104 0 0 1-.106.102" style="stroke:none;fill-rule:nonzero;fill:#000;fill-opacity:1"/><path d="M71.535 87.867a.105.105 0 0 1-.105-.105V63.14c0-.059.047-.106.105-.106h10.266c.058 0 .105.047.105.106a.104.104 0 0 1-.105.101H71.637v24.52a.104.104 0 0 1-.102.105M54.566 58.672h28.16v-4.469h-28.16Zm28.262.21H54.461a.102.102 0 0 1-.102-.105v-4.675c0-.059.043-.106.102-.106h28.367c.059 0 .106.047.106.106v4.675a.105.105 0 0 1-.106.106" style="stroke:none;fill-rule:nonzero;fill:#000;fill-opacity:1"/><path d="M78.477 55.242h-7.211a.102.102 0 0 1-.106-.101c0-.059.047-.106.106-.106h7.21c.055 0 .102.047.102.106a.1.1 0 0 1-.101.101M54.566 58.676h7.922v-4.469h-7.922Zm8.028.207H54.46a.102.102 0 0 1-.102-.106v-4.675c0-.059.043-.106.102-.106h8.133c.058 0 .101.047.101.106v4.675a.102.102 0 0 1-.101.106" style="stroke:none;fill-rule:nonzero;fill:#000;fill-opacity:1"/><path d="M55.395 57.89a.1.1 0 0 1-.102-.1v-2.65c0-.058.047-.105.102-.105h14.632c.059 0 .106.047.106.106a.104.104 0 0 1-.106.101H55.5v2.547a.102.102 0 0 1-.105.102M84.934 59.516c.37 0 .671-.301.671-.672v-4.809a.672.672 0 1 0-1.343 0v4.809c0 .37.3.672.672.672" style="stroke:none;fill-rule:nonzero;fill:#000;fill-opacity:1"/><path d="M85.555 56.441c0-.37-.301-.675-.672-.675h-4.809a.675.675 0 0 0-.672.675c0 .371.301.672.672.672h4.809c.37 0 .672-.3.672-.672" style="stroke:none;fill-rule:nonzero;fill:#c1ff72;fill-opacity:1"/><path d="M80.074 55.871a.568.568 0 1 0 0 1.137h4.809a.57.57 0 0 0 .57-.567.571.571 0 0 0-.57-.57Zm4.809 1.344h-4.809a.776.776 0 1 1 0-1.55h4.809c.43 0 .777.347.777.776a.776.776 0 0 1-.777.774" style="stroke:none;fill-rule:nonzero;fill:#000;fill-opacity:1"/><path d="m73.488 98.492-.293 2.621-1.66.196.047-3.11 1.906.293" style="stroke:none;fill-rule:nonzero;fill:#c1ff72;fill-opacity:1"/><path d="m71.684 98.32-.043 2.871 1.457-.171.277-2.442Zm-.149 3.094a.112.112 0 0 1-.07-.027.104.104 0 0 1-.035-.078l.047-3.114a.12.12 0 0 1 .035-.078.11.11 0 0 1 .086-.02l1.906.294a.107.107 0 0 1 .09.113l-.297 2.621a.1.1 0 0 1-.09.09l-1.66.195c-.004.004-.008.004-.012.004" style="stroke:none;fill-rule:nonzero;fill:#000;fill-opacity:1"/><path d="M71.207 105.875c.688.105 1.82.207 3.152.02.434-.06.73-.512.63-.97-.274-1.273-.743-3.695-1.59-4.82l-.223.606-.29-.574a.264.264 0 0 0-.195-.145l-.437-.078a.27.27 0 0 0-.297.219l-.11.523-.425-.703-.828 5.027c-.059.43.215.829.613.895" style="stroke:none;fill-rule:nonzero;fill:#c1ff72;fill-opacity:1"/><g clip-path="url(#b)"><path d="m71.48 100.246-.785 4.75c-.05.371.188.719.532.774.699.113 1.808.207 3.117.023a.633.633 0 0 0 .433-.273.734.734 0 0 0 .114-.57l-.059-.278c-.266-1.234-.695-3.262-1.402-4.344l-.157.418a.11.11 0 0 1-.09.07.117.117 0 0 1-.101-.058l-.289-.574a.163.163 0 0 0-.113-.09l-.446-.078c-.078-.012-.156.046-.171.136l-.114.528a.104.104 0 0 1-.082.082.12.12 0 0 1-.11-.051Zm1.375 5.86c-.671 0-1.238-.063-1.664-.13-.453-.074-.765-.527-.699-1.011l.828-5.031a.1.1 0 0 1 .082-.082.097.097 0 0 1 .11.046l.289.48.054-.269a.377.377 0 0 1 .415-.3l.44.082a.36.36 0 0 1 .27.199l.18.36.14-.38c.016-.035.048-.062.083-.066a.093.093 0 0 1 .097.039c.805 1.066 1.274 3.27 1.555 4.586l.059.277c.054.254 0 .52-.149.735a.845.845 0 0 1-.574.359 11.25 11.25 0 0 1-1.516.105" style="stroke:none;fill-rule:nonzero;fill:#000;fill-opacity:1"/></g><path d="M71.207 105.875c.688.105 1.82.207 3.152.02.434-.06.73-.512.63-.97a2.875 2.875 0 0 0-.032-.16c-1.855.59-3.613.126-4.309-.117l-.054.332c-.059.43.215.829.613.895" style="stroke:none;fill-rule:nonzero;fill:#c1ff72;fill-opacity:1"/><g clip-path="url(#c)"><path d="m70.73 104.785-.035.211c-.05.371.188.719.532.774.699.113 1.812.207 3.117.023a.633.633 0 0 0 .433-.273.734.734 0 0 0 .114-.57l-.012-.052c-1.754.52-3.406.13-4.149-.113Zm2.125 1.32c-.671 0-1.238-.062-1.664-.128-.453-.075-.765-.528-.699-1.012l.055-.332a.1.1 0 0 1 .047-.07.12.12 0 0 1 .09-.012c.664.23 2.406.699 4.242.117a.087.087 0 0 1 .082.008c.027.015.043.039.05.066l.036.164c.054.254 0 .52-.149.735a.845.845 0 0 1-.574.359 11.25 11.25 0 0 1-1.516.105" style="stroke:none;fill-rule:nonzero;fill:#000;fill-opacity:1"/></g><path d="M73.559 103.316h-.004l-1.551-.066a.104.104 0 0 1-.098-.11c0-.058.051-.1.106-.1l1.55.065a.11.11 0 0 1 .102.11.107.107 0 0 1-.105.101" style="stroke:none;fill-rule:nonzero;fill:#000;fill-opacity:1"/><path d="m65.543 97.246-.3 3.828-1.993-.015-.04-3.829 2.333.016" style="stroke:none;fill-rule:nonzero;fill:#c1ff72;fill-opacity:1"/><path d="m63.352 100.957 1.793.012.289-3.617-2.118-.016Zm1.89.219h-.004l-1.992-.012a.104.104 0 0 1-.101-.105l-.036-3.829c0-.027.008-.054.032-.074a.091.091 0 0 1 .07-.031l2.336.02c.027 0 .055.011.074.03.02.024.031.052.027.083l-.304 3.824a.102.102 0 0 1-.102.094" style="stroke:none;fill-rule:nonzero;fill:#000;fill-opacity:1"/><path d="M65.652 103.309c0 .363-.234.68-.566.757-1.148.278-3.738.895-4.477 1.008-.957.145-2.125-.18-2.62-.781-.497-.602.398-1.715 1.945-2.531 1.222-.649 2.289-2.282 2.757-2.348.465-.066 1.309 1.383 1.309 1.383l1.426-.625s.226 1.3.226 3.137" style="stroke:none;fill-rule:nonzero;fill:#c1ff72;fill-opacity:1"/><path d="M65.652 103.309Zm-2.93-3.793h-.019c-.172.023-.52.39-.89.777-.512.531-1.145 1.195-1.833 1.559-1.105.585-1.894 1.335-2.011 1.918-.035.18-.004.335.101.457.461.562 1.57.89 2.524.742.738-.11 3.37-.739 4.468-1 .282-.07.489-.344.489-.66 0-1.473-.149-2.614-.207-2.989l-1.301.575a.111.111 0 0 1-.133-.043c-.328-.567-.906-1.336-1.187-1.336Zm-2.585 5.695c-.887 0-1.805-.336-2.227-.852-.144-.171-.191-.39-.144-.632.129-.649.941-1.438 2.117-2.059.66-.348 1.281-.996 1.781-1.52.445-.464.766-.804 1.012-.835.465-.067 1.144.988 1.367 1.351l1.344-.59a.12.12 0 0 1 .09.004.101.101 0 0 1 .05.074c.004.016.23 1.332.23 3.157 0 .41-.273.77-.648.859-1.097.266-3.738.894-4.484 1.008-.16.023-.324.035-.488.035" style="stroke:none;fill-rule:nonzero;fill:#000;fill-opacity:1"/><path d="M60.61 105.074c.738-.113 3.328-.73 4.476-1.008.332-.078.566-.394.566-.757 0-.164 0-.32-.004-.477-1.3.48-6.171 2.133-7.605.5-.227.371-.262.711-.055.961.496.602 1.664.926 2.621.781" style="stroke:none;fill-rule:nonzero;fill:#c1ff72;fill-opacity:1"/><path d="M58.066 103.504c-.113.226-.175.504.004.723.461.562 1.57.89 2.524.742.738-.11 3.37-.739 4.468-1 .282-.07.489-.344.489-.66 0-.11-.004-.223-.004-.329-1.55.563-5.953 1.977-7.48.524Zm2.543 1.57h.004Zm-.472.137c-.887 0-1.805-.336-2.227-.852-.226-.273-.21-.66.043-1.082a.108.108 0 0 1 .078-.05.11.11 0 0 1 .09.035c1.414 1.613 6.488-.157 7.492-.528a.1.1 0 0 1 .094.012c.027.02.043.05.047.082 0 .156.004.317.004.48 0 .41-.274.77-.645.86-1.101.266-3.742.894-4.488 1.008a3.341 3.341 0 0 1-.488.035M62.46 102.137a.094.094 0 0 1-.07-.028l-.882-.757a.105.105 0 0 1-.012-.149.1.1 0 0 1 .145-.008l.886.758c.043.04.047.102.012.145a.096.096 0 0 1-.078.039M73.773 69.852s.477 1.148.633 3.695c.285 4.613.356 12.25.528 14.914.261 4.133-.891 10.5-.891 10.5l-3.074-.195s-.094-6.153-.25-9.137a5.56 5.56 0 0 0-.34-1.649c-.39-1.066-1.078-3.132-1.32-5.03-.344-2.716-1.594-7.009-1.594-7.009S66.09 97.305 65.96 98.984c0 0-2.41.098-3.27-.492 0 0-1.418-7.805-1.136-12.043.28-4.238.195-14.773.195-14.773l12.023-1.824" style="stroke:none;fill-rule:nonzero;fill:#000;fill-opacity:1"/><path d="M73.055 73.86c-1.61 0-2.024-1.59-2.028-1.61a.108.108 0 0 1 .078-.125c.055-.012.114.02.125.078.016.059.391 1.492 1.891 1.45.059 0 .106.042.106.097.003.059-.043.105-.102.11h-.07M47.344 57.648c-.352-.093-.227.223.039.477.195.184.465.34.62.422.036.023.028.078-.015.086-1.347.172-2.285.926-2.746 1.387a.59.59 0 0 0 .067.898c1.168.816 4.254-.047 4.625-.027.332.015 2.8 1.613 2.8 1.613 1.047.945 2.012 2 3.047 2.27 1.899.496 6.106-3.958 6.813-5.989 0 0-1.578-1.95-3.578-2.46-.137-.036-3.305 4.081-3.446 4.042-2.261-.586-4.117-.851-5.25-1.324a3.45 3.45 0 0 1-.82-.48c-.293-.223-.914-.579-2.156-.915" style="stroke:none;fill-rule:nonzero;fill:#c1ff72;fill-opacity:1"/><path d="M49.922 60.785h.016c.343.02 2.437 1.363 2.855 1.633.004.004.008.008.012.008.183.168.367.34.547.508.836.785 1.628 1.523 2.457 1.738.796.207 2.199-.547 3.754-2.02 1.359-1.289 2.542-2.859 2.91-3.847-.246-.29-1.684-1.899-3.442-2.371-.18.16-.988 1.156-1.64 1.96-1.711 2.11-1.739 2.106-1.848 2.075-.871-.227-1.691-.407-2.418-.567-1.148-.25-2.14-.468-2.848-.761a3.842 3.842 0 0 1-.843-.496c-.301-.23-.914-.575-2.118-.895a.34.34 0 0 0-.082-.016c.012.055.082.18.22.313.19.18.456.336.597.41a.15.15 0 0 1 .078.16.145.145 0 0 1-.129.117c-1.324.172-2.25.926-2.684 1.36a.5.5 0 0 0-.144.394c.012.14.086.266.2.344.866.61 2.937.23 3.933.047.332-.059.52-.094.617-.094Zm6.18 4.133c-.122 0-.239-.016-.348-.043-.879-.23-1.688-.988-2.543-1.79-.18-.167-.356-.335-.54-.5-1.183-.765-2.546-1.581-2.745-1.593-.067-.004-.309.043-.582.094-1.102.2-3.153.574-4.094-.082a.675.675 0 0 1-.285-.496.686.686 0 0 1 .203-.559c.434-.437 1.34-1.176 2.633-1.394a2.965 2.965 0 0 1-.489-.356c-.175-.168-.351-.418-.265-.574.039-.066.121-.129.324-.074 1.234.328 1.871.687 2.191.93.258.199.524.355.797.468.688.285 1.672.5 2.813.75.715.16 1.523.336 2.383.559.187-.156 1.008-1.172 1.672-1.992 1.683-2.078 1.707-2.07 1.816-2.043 2.012.515 3.566 2.414 3.629 2.496a.1.1 0 0 1 .02.097c-.672 1.93-4.473 6.102-6.59 6.102" style="stroke:none;fill-rule:nonzero;fill:#000;fill-opacity:1"/><path d="M61.418 53.75a5.99 5.99 0 0 1 .996-.246c2.695-.434 4.856-.29 6.121-.29a2.97 2.97 0 0 1 2.05.829c.849.812 2.024 2.176 2.497 3.816.461 1.621-.012 4.254.035 5.79.125 4.081.656 6.203.656 6.203s-2.101 1.093-7.687 1.054c-2.852-.02-4.2-.828-4.2-.828l-.831-8.84.363-7.488" style="stroke:none;fill-rule:nonzero;fill:#c1ff72;fill-opacity:1"/><path d="M61.988 70.016c.254.132 1.598.77 4.098.785 4.937.035 7.152-.824 7.57-1.008-.097-.434-.535-2.54-.644-6.145-.016-.523.027-1.18.078-1.87.09-1.329.191-2.837-.11-3.887-.457-1.602-1.593-2.938-2.464-3.774a2.855 2.855 0 0 0-1.98-.797c-.224 0-.474-.008-.747-.011-1.328-.024-3.144-.059-5.36.296-.308.051-.613.125-.91.223l-.359 7.41Zm4.387.996h-.29c-2.847-.02-4.194-.813-4.25-.844a.104.104 0 0 1-.05-.078l-.832-8.84v-.016l.36-7.488a.111.111 0 0 1 .07-.094 6.172 6.172 0 0 1 1.012-.25c2.234-.359 4.136-.324 5.398-.3.273.003.52.011.742.011.797 0 1.55.305 2.125.856.89.855 2.05 2.218 2.52 3.863.312 1.086.207 2.613.117 3.961-.05.687-.094 1.336-.078 1.852.125 4.023.652 6.164.656 6.183a.108.108 0 0 1-.05.117c-.087.043-2.118 1.067-7.45 1.067" style="stroke:none;fill-rule:nonzero;fill:#000;fill-opacity:1"/><path d="M73.773 69.852c-1.113-.391-2.12-1.47-2.246-2.645l-1.023-9.758a.54.54 0 0 0-.504-.57l-6.379-.426a.544.544 0 0 0-.578.5l-.45 16.137 11.18-1.61v-1.628" style="stroke:none;fill-rule:nonzero;fill:#000;fill-opacity:1"/><path d="M64.68 58.91c.007-.004.105-.07.113-.07.246-.082.793-.778.637-.988-1.598-2.176-1.051-4.332-1.004-4.52a.356.356 0 0 0-.285-.437c-.204-.032-.426-.055-.52-.02-.305.11-1.219 1.758.465 5.902.098.235.355.196.594.133" style="stroke:none;fill-rule:nonzero;fill:#000;fill-opacity:1"/><path d="M61.055 61.238s-3.918-1.09-3.946-3.558c0 0 1.395-2.934 4.309-3.93l-.363 7.488" style="stroke:none;fill-rule:nonzero;fill:#c1ff72;fill-opacity:1"/><path d="M57.21 57.703c.052 2.102 3.09 3.188 3.747 3.399l.352-7.2c-2.618.97-3.965 3.54-4.098 3.801Zm3.845 3.64c-.008 0-.016-.003-.028-.003-.164-.047-3.992-1.14-4.023-3.656 0-.016.004-.032.012-.047.011-.032 1.449-2.989 4.367-3.985a.108.108 0 0 1 .097.016c.028.02.043.055.043.09l-.363 7.484a.12.12 0 0 1-.043.082.118.118 0 0 1-.062.02" style="stroke:none;fill-rule:nonzero;fill:#000;fill-opacity:1"/><path d="M69.215 58.313s.926 2.925-.8 5.39l6.39 2.996.996-3.18c1.254-4.14-.926-8.664-5.047-9.988-1.668-.535-2.945-.437-2.945-.437l1.406 5.218" style="stroke:none;fill-rule:nonzero;fill:#c1ff72;fill-opacity:1"/><path d="M74.805 66.805a.102.102 0 0 1-.043-.012l-1.742-.816c-.051-.024-.075-.086-.051-.137.023-.055.086-.074.14-.05l1.633.765.961-3.067c1.258-4.152-.976-8.574-4.98-9.86a9.588 9.588 0 0 0-1.93-.401c-.059-.004-.098-.055-.094-.114a.108.108 0 0 1 .114-.093 9.44 9.44 0 0 1 1.972.414c4.113 1.316 6.406 5.855 5.117 10.117l-.996 3.18a.11.11 0 0 1-.058.066.14.14 0 0 1-.043.008" style="stroke:none;fill-rule:nonzero;fill:#000;fill-opacity:1"/><path d="M68.383 59.133c.012 0 .02.004.027.004.305.05.586-.13.625-.399.418-2.707 1.344-3.754 2.047-4.156.43-.246 1.086-.387 1.457-.45.098-.015.121-.144.04-.198-.177-.11-.411-.254-.56-.332-.113-.063-.644-.41-1.566.132-1.285.754-2.137 2.36-2.516 4.82-.042.262.157.516.446.579M63.797 73.934V29.859Zm-48.23-44.075v44.075h48.23V29.859Zm43.71 40.645H41.051V33.285h18.226Zm-22.015 0H19.039V33.285h18.223v37.219" style="stroke:none;fill-rule:nonzero;fill:#000;fill-opacity:1"/><path d="M19.14 70.398h18.016V33.391H19.141Zm18.122.207H19.039a.104.104 0 0 1-.105-.101V33.285c0-.055.046-.101.105-.101h18.223c.058 0 .105.046.105.101v37.219a.104.104 0 0 1-.105.101Zm3.894-.207h18.016V33.391H41.156Zm18.121.207H41.051a.103.103 0 0 1-.102-.101V33.285c0-.055.047-.101.102-.101h18.226c.055 0 .102.046.102.101v37.219a.103.103 0 0 1-.102.101Zm-43.605 3.223h48.023V29.961H15.672Zm48.125.207h-48.23a.103.103 0 0 1-.102-.101V29.855c0-.054.047-.101.101-.101h48.23c.06 0 .106.047.106.101v44.079a.104.104 0 0 1-.105.101" style="stroke:none;fill-rule:nonzero;fill:#c1ff72;fill-opacity:1"/><path d="M59.172 70.504H39.895v-38.27h19.277Zm-22.016 0H17.883v-38.27h19.273ZM15.461 29.859v43.02H61.59v-43.02H15.46" style="stroke:none;fill-rule:nonzero;fill:#c1ff72;fill-opacity:1"/><path d="M17.984 70.398h19.067V32.34H17.984Zm19.172.207H17.883a.104.104 0 0 1-.106-.101v-38.27c0-.058.047-.105.106-.105h19.273c.059 0 .106.047.106.105v38.27a.104.104 0 0 1-.106.101ZM40 70.398h19.066V32.34H40Zm19.172.207H39.895a.103.103 0 0 1-.102-.101v-38.27c0-.058.047-.105.102-.105h19.277c.055 0 .101.047.101.105v38.27a.103.103 0 0 1-.101.101Zm-43.606 2.172h45.918V29.961H15.566Zm46.024.207H15.46a.104.104 0 0 1-.1-.105V29.855c0-.054.046-.101.1-.101h46.13c.058 0 .105.047.105.101V72.88a.105.105 0 0 1-.105.105" style="stroke:none;fill-rule:nonzero;fill:#000;fill-opacity:1"/><path d="m35.145 37.258-13.86 26.797h4.75l9.11-17.578v-9.22" style="stroke:none;fill-rule:nonzero;fill:#c1ff72;fill-opacity:1"/><path d="M21.457 63.95h4.512l9.074-17.5v-8.766Zm4.578.206h-4.75a.108.108 0 0 1-.09-.05.104.104 0 0 1-.004-.102L35.055 37.21a.105.105 0 0 1 .117-.055.104.104 0 0 1 .078.102v9.219a.104.104 0 0 1-.012.046l-9.113 17.579a.095.095 0 0 1-.09.054" style="stroke:none;fill-rule:nonzero;fill:#000;fill-opacity:1"/><path d="m28.191 38.762-6.906 13.433v4.617l6.906-13.44v-4.61" style="stroke:none;fill-rule:nonzero;fill:#c1ff72;fill-opacity:1"/><path d="m21.387 52.223.004 4.16 6.695-13.04v-4.152Zm-.102 4.695c-.008 0-.015-.004-.023-.004a.104.104 0 0 1-.078-.102l-.004-4.617c0-.015.004-.03.011-.047l6.907-13.433a.105.105 0 0 1 .117-.055.104.104 0 0 1 .078.102v4.61c0 .015 0 .03-.008.046L21.38 56.859a.109.109 0 0 1-.094.059" style="stroke:none;fill-rule:nonzero;fill:#000;fill-opacity:1"/><path d="M56.563 35.453h-2.754L42.258 57.621h2.75l11.554-22.168" style="stroke:none;fill-rule:nonzero;fill:#c1ff72;fill-opacity:1"/><path d="M42.43 57.52h2.515l11.45-21.961H53.87Zm2.578.207h-2.75a.105.105 0 0 1-.094-.152l11.55-22.169a.105.105 0 0 1 .095-.054h2.757c.036 0 .07.015.086.046.02.032.02.07.004.102L45.102 57.672a.114.114 0 0 1-.094.055M38.477 55.055a.785.785 0 0 1-.786-.785c0-.06.047-.106.106-.106.055 0 .101.047.101.106a.58.58 0 0 0 1.157 0v-6.48c0-.06.047-.106.105-.106.055 0 .102.046.102.105v6.48a.785.785 0 0 1-.785.786" style="stroke:none;fill-rule:nonzero;fill:#000;fill-opacity:1"/><path d="M37.902 51.379v-.02c0-.37.301-.672.672-.672h4.887c.371 0 .676.301.676.672v.02a.675.675 0 0 1-.676.672h-4.887a.672.672 0 0 1-.672-.672" style="stroke:none;fill-rule:nonzero;fill:#c1ff72;fill-opacity:1"/><path d="M38.574 50.793a.57.57 0 0 0-.57.566v.02a.57.57 0 0 0 .57.566h4.887c.316 0 .57-.254.57-.566v-.02a.568.568 0 0 0-.57-.566Zm4.887 1.36h-4.887a.776.776 0 0 1-.777-.774v-.02a.78.78 0 0 1 .777-.777h4.887a.78.78 0 0 1 .777.777v.02a.776.776 0 0 1-.777.773" style="stroke:none;fill-rule:nonzero;fill:#000;fill-opacity:1"/><path d="M68.8 63.883s-1.85 3.594-3.288 4.613c-1.606 1.137-4.856 2.418-6.223 2.645-1.059.175-1.848-.051-2.406-.223-.313-.098-.785-.219-1.125-.172a.697.697 0 0 0-.262.094c-.598.387 1.613 1.219 1.613 1.219.168.464-2.023.683-3.297.773-.332.02-.453.445-.187.64.64.477 1.648 1.044 2.688.883 1.312-.203 1.738-.925 2.218-1.101.352-.129 7.543-.496 9.715-1.824 3.281-2.012 4.55-5.672 4.55-5.672l-3.995-1.875" style="stroke:none;fill-rule:nonzero;fill:#c1ff72;fill-opacity:1"/><path d="M55.918 70.84c-.05 0-.102 0-.148.008a.504.504 0 0 0-.215.082c-.059.039-.059.062-.055.074.023.219.871.668 1.645.957.027.012.05.035.062.062a.25.25 0 0 1-.027.223c-.207.317-1.336.547-3.36.688a.257.257 0 0 0-.226.18.251.251 0 0 0 .093.277c.641.476 1.614 1.015 2.61.863.855-.133 1.312-.488 1.683-.77.184-.14.344-.265.516-.328.09-.031.422-.066 1.164-.136 2.23-.215 6.867-.66 8.531-1.68 2.93-1.797 4.258-4.961 4.477-5.528l-3.824-1.792c-.301.57-1.938 3.617-3.274 4.558-1.582 1.125-4.82 2.426-6.265 2.664-1.125.188-1.957-.07-2.453-.226-.274-.086-.637-.176-.934-.176Zm.023 3.648c-.921 0-1.785-.488-2.379-.93a.464.464 0 0 1 .242-.832c2.735-.187 3.141-.5 3.2-.593-.39-.153-1.668-.68-1.711-1.11-.008-.074.012-.18.148-.27a.81.81 0 0 1 .301-.112c.352-.047.828.07 1.172.175.477.153 1.281.403 2.36.223 1.406-.234 4.656-1.55 6.175-2.629 1.403-.992 3.239-4.539 3.258-4.574a.103.103 0 0 1 .137-.047l3.996 1.875a.1.1 0 0 1 .055.129c-.012.035-1.32 3.719-4.598 5.723-1.703 1.046-6.375 1.496-8.617 1.71-.559.055-1.043.102-1.114.126-.14.05-.289.164-.46.296-.368.282-.868.668-1.778.809-.129.02-.258.031-.387.031" style="stroke:none;fill-rule:nonzero;fill:#000;fill-opacity:1"/><path d="m68.266 52.75-.114-3.602-2.984.688.059 2.777c.003.266-.497.672-.84.918a.324.324 0 0 0-.004.524c1.086.758 3.379.363 5.441-.305 0 0-1.547-.71-1.558-1" style="stroke:none;fill-rule:nonzero;fill:#c1ff72;fill-opacity:1"/><path d="m65.273 49.914.059 2.7c.004.241-.293.577-.883 1.003a.21.21 0 0 0-.094.18c0 .07.032.133.09.172 1.137.797 3.582.23 5.098-.239-.54-.261-1.367-.703-1.383-.976v-.004l-.11-3.473Zm.825 4.656c-.696 0-1.325-.117-1.774-.43a.417.417 0 0 1-.176-.34c0-.14.067-.273.176-.35.746-.536.801-.774.801-.833l-.063-2.781c0-.047.036-.094.083-.102l2.984-.687a.108.108 0 0 1 .086.016c.027.019.039.05.039.082l.113 3.597c.031.149.801.59 1.5.914.04.02.063.059.063.102a.101.101 0 0 1-.07.09c-.985.32-2.485.722-3.762.722" style="stroke:none;fill-rule:nonzero;fill:#000;fill-opacity:1"/><path d="M63 44.8c.77-.179-.074.786 2.656-.542 1.086-.528.73.902 1.012.765 1.043-.503 1.328-.628 1.887-.582.37.032 1.234.602 1.195 1.102-.121 1.621-.883 1.328-1.125 2.766-.172 1.011-.395 1.347-.754 1.55-.363.207-.734-.261-1.148-.066-.535.254-.262 1.207-.743 1.703-.304.316-1.085.57-2.476.164a.478.478 0 0 1-.348-.515c.032-.301.07-.68.14-1.04.337-1.714.849-2.18.571-2.558-.426-.586-1.574-.012-1.863-.504-.3-.508-.055-2 .996-2.242" style="stroke:none;fill-rule:nonzero;fill:#000;fill-opacity:1"/><path d="M63.047 47.152c.344 0 .695.043.902.332.188.254.086.528-.078.985-.137.37-.32.883-.473 1.656-.066.348-.109.715-.14 1.031a.383.383 0 0 0 .273.407c1.29.374 2.07.175 2.371-.137.207-.211.262-.528.317-.832.062-.364.129-.735.457-.895.25-.117.476-.035.676.035.175.063.328.118.468.036.317-.18.532-.477.7-1.477.12-.7.355-1.004.585-1.3.247-.321.48-.626.543-1.458.032-.414-.761-.96-1.101-.988-.531-.047-.797.07-1.836.57a.163.163 0 0 1-.148.004c-.094-.05-.118-.172-.145-.34-.031-.195-.074-.433-.223-.508-.105-.054-.273-.027-.496.079-1.91.93-2.133.761-2.347.601-.079-.058-.13-.098-.329-.05-.484.109-.742.492-.87.796-.215.504-.2 1.055-.06 1.293.106.18.415.172.739.164.07 0 .14-.004.215-.004Zm1.75 4.825c-.352 0-.785-.059-1.324-.215a.592.592 0 0 1-.422-.63c.035-.32.074-.69.144-1.05.153-.785.344-1.305.48-1.684.16-.445.223-.632.11-.793-.191-.261-.578-.25-.95-.242-.37.012-.753.02-.92-.265-.196-.332-.173-.97.046-1.48.21-.49.57-.817 1.016-.919l.023.102-.023-.102c.27-.062.382 0 .5.086.14.11.336.254 2.132-.62.29-.138.512-.165.684-.08.238.126.289.435.328.661.012.055.024.125.035.168 1.031-.496 1.332-.625 1.906-.574.43.035 1.336.644 1.293 1.21-.066.895-.332 1.24-.585 1.567-.223.293-.434.563-.543 1.211-.165.953-.372 1.379-.801 1.621-.223.13-.446.051-.64-.02-.18-.062-.349-.12-.52-.042-.235.113-.286.402-.344.742-.055.32-.121.684-.367.941-.118.117-.477.407-1.258.407" style="stroke:none;fill-rule:nonzero;fill:#c1ff72;fill-opacity:1"/><path d="m66.168 47.11-.152.453c-.075.21-.13.43-.172.648-.078.414-.242 1.121-.332 1.52-.282 1.277-1.973.214-1.973.214l-.156-.312-.211-.047a.224.224 0 0 1-.11-.055.224.224 0 0 1-.054-.265c.222-.489.676-1.575.75-2.493 0 0 1.21-.543 2.41.336" style="stroke:none;fill-rule:nonzero;fill:#c1ff72;fill-opacity:1"/><path d="M63.621 49.871c.149.09.945.535 1.434.332.183-.078.3-.238.355-.496.028-.11.055-.242.086-.387.086-.37.188-.828.246-1.129.043-.222.102-.445.176-.664l.129-.379a2.449 2.449 0 0 0-2.192-.3c-.09.898-.507 1.922-.753 2.46a.131.131 0 0 0 .027.149c.016.012.039.023.066.027l.211.047a.11.11 0 0 1 .07.055Zm1.145.59c-.59 0-1.246-.406-1.282-.43a.086.086 0 0 1-.035-.039l-.136-.27-.165-.035a.337.337 0 0 1-.238-.465c.2-.433.672-1.542.746-2.456a.104.104 0 0 1 .063-.086 2.596 2.596 0 0 1 2.511.347c.036.028.051.075.036.118l-.153.449c-.07.207-.129.422-.168.636-.058.305-.16.766-.246 1.137l-.086.383c-.07.324-.23.54-.48.645a.958.958 0 0 1-.367.066" style="stroke:none;fill-rule:nonzero;fill:#000;fill-opacity:1"/><path d="M66.094 48.61s.367-1.09.824-.817c.457.27.023 1.453-.824.816M3.508 97.598l-.578 3.539 1.836.191.707-3.32-1.965-.41" style="stroke:none;fill-rule:nonzero;fill:#c1ff72;fill-opacity:1"/><path d="m3.05 101.043 1.634.172.668-3.13-1.758-.362Zm1.716.39c-.004 0-.008 0-.012-.003l-1.836-.192a.099.099 0 0 1-.07-.039.089.089 0 0 1-.02-.082l.578-3.535a.113.113 0 0 1 .043-.07.11.11 0 0 1 .078-.016l1.97.41c.026.004.05.02.066.043.015.024.019.051.011.078l-.707 3.325a.105.105 0 0 1-.101.082" style="stroke:none;fill-rule:nonzero;fill:#000;fill-opacity:1"/><g clip-path="url(#d)"><path d="M4.957 100.563a1.564 1.564 0 0 1-1.73-.368l-.23-.25a.18.18 0 0 0-.286.028l-1.27 1.918a.824.824 0 0 0 .094 1.058 8.1 8.1 0 0 0 1.61 1.196c1.277.707 2.394 2.234 3.687 1.847 1.297-.39 1.227-.449 1.367-.863.145-.414-.488-1.246-1.535-2.18-.64-.566-1.27-1.808-1.469-2.289a.18.18 0 0 0-.238-.097" style="stroke:none;fill-rule:nonzero;fill:#c1ff72;fill-opacity:1"/><path d="M4.957 100.563Zm-2.094-.57h-.008c-.015.003-.042.007-.058.034l-1.27 1.922a.722.722 0 0 0 .078.926c.352.332.91.805 1.59 1.18.41.226.805.535 1.184.836.816.644 1.59 1.25 2.422 1 1.152-.344 1.176-.407 1.273-.711.008-.028.02-.055.028-.086.093-.266-.254-.953-1.504-2.067-.688-.609-1.328-1.918-1.5-2.328a.077.077 0 0 0-.043-.043.076.076 0 0 0-.059 0 1.666 1.666 0 0 1-1.844-.39l-.234-.246a.067.067 0 0 0-.055-.028Zm3.551 6.163c-.762 0-1.473-.558-2.164-1.101-.375-.293-.762-.602-1.156-.82a8.094 8.094 0 0 1-1.63-1.212.93.93 0 0 1-.109-1.191l1.266-1.918a.293.293 0 0 1 .215-.129.288.288 0 0 1 .234.09l.235.246c.41.438 1.058.574 1.613.344a.302.302 0 0 1 .219 0c.07.027.125.086.152.156.211.5.836 1.711 1.445 2.25.672.602 1.77 1.695 1.567 2.293-.012.027-.02.055-.028.078-.128.39-.199.485-1.41.848-.152.047-.3.066-.449.066" style="stroke:none;fill-rule:nonzero;fill:#000;fill-opacity:1"/></g><path d="M4.664 102.68a.105.105 0 0 1-.094-.067.105.105 0 0 1 .055-.136l1.207-.489c.05-.02.113.004.133.059a.105.105 0 0 1-.055.137l-1.207.488c-.012.004-.023.008-.039.008M5.133 103.414a.1.1 0 0 1-.094-.066.1.1 0 0 1 .055-.133l1.277-.524a.107.107 0 0 1 .137.059.107.107 0 0 1-.059.137l-1.277.52c-.012.003-.024.007-.04.007" style="stroke:none;fill-rule:nonzero;fill:#000;fill-opacity:1"/><g clip-path="url(#e)"><path d="M8.164 105.227s-.664.93-2.11.144c-.964-.523-4.609-3.504-4.609-3.504l-.3.418a.513.513 0 0 0 .082.684c.906.773 3.335 2.765 4.73 3.14 1.738.465 2.207-.882 2.207-.882" style="stroke:none;fill-rule:nonzero;fill:#c1ff72;fill-opacity:1"/></g><g clip-path="url(#f)"><path d="m1.465 102.016-.238.332a.4.4 0 0 0 .07.539c.953.82 3.324 2.758 4.687 3.12.954.259 1.496-.05 1.79-.359-.368.172-.954.254-1.766-.187-.89-.48-3.973-2.98-4.543-3.445Zm5.176 4.296c-.211 0-.446-.03-.711-.101-1.403-.379-3.805-2.34-4.77-3.164a.616.616 0 0 1-.101-.82l.3-.422a.113.113 0 0 1 .07-.043.103.103 0 0 1 .083.023c.035.031 3.648 2.985 4.593 3.496 1.348.73 1.965-.105 1.973-.117a.108.108 0 0 1 .133-.031.103.103 0 0 1 .05.125 1.702 1.702 0 0 1-1.62 1.055" style="stroke:none;fill-rule:nonzero;fill:#000;fill-opacity:1"/></g><path d="m13.45 98.2-.84 4.882 2.03.984 1.083-5.316-2.274-.55" style="stroke:none;fill-rule:nonzero;fill:#c1ff72;fill-opacity:1"/><path d="m12.727 103.023 1.84.891 1.035-5.086-2.07-.504Zm1.914 1.149a.079.079 0 0 1-.043-.012l-2.036-.984a.105.105 0 0 1-.054-.11l.84-4.886a.096.096 0 0 1 .043-.067c.027-.015.054-.023.082-.015l2.273.55c.055.016.09.067.078.122l-1.082 5.316a.106.106 0 0 1-.101.086" style="stroke:none;fill-rule:nonzero;fill:#000;fill-opacity:1"/><g clip-path="url(#g)"><path d="M12.3 102.75a17.552 17.552 0 0 0-.179 2.113.966.966 0 0 0 .84.961c1.36.176 4.445.367 7.074.125.18-.015.5-.148.59-.597.297-1.52-2.328-1.891-5.207-2.993a.318.318 0 0 0-.328.067l-.309.304c-.312.301-.77.387-1.168.215l-.945-.402a.266.266 0 0 0-.367.207" style="stroke:none;fill-rule:nonzero;fill:#c1ff72;fill-opacity:1"/><path d="M12.3 102.75h.005Zm.262-.125a.209.209 0 0 0-.078.02.16.16 0 0 0-.078.12c-.066.45-.172 1.32-.18 2.098a.85.85 0 0 0 .747.856c1.41.183 4.445.367 7.054.129.067-.008.403-.059.493-.516.21-1.074-1.215-1.543-3.188-2.195a45.465 45.465 0 0 1-1.95-.68.212.212 0 0 0-.218.043l-.312.305a1.17 1.17 0 0 1-1.282.238l-.941-.406a.198.198 0 0 0-.066-.012Zm4.735 3.543c-1.766 0-3.414-.121-4.348-.242a1.068 1.068 0 0 1-.933-1.067c.011-.789.12-1.668.183-2.125a.373.373 0 0 1 .512-.29l.941.408a.96.96 0 0 0 1.055-.196l.313-.304a.426.426 0 0 1 .437-.09 43.46 43.46 0 0 0 1.941.68c1.997.656 3.57 1.175 3.329 2.43-.094.464-.426.66-.68.683-.895.082-1.836.113-2.75.113" style="stroke:none;fill-rule:nonzero;fill:#000;fill-opacity:1"/></g><g clip-path="url(#h)"><path d="M12.125 104.746s-.004.078-.004.117a.966.966 0 0 0 .84.961c1.36.176 4.445.367 7.074.125.18-.015.5-.148.59-.597.027-.141.008-.391.008-.391l-.188.012a54.788 54.788 0 0 1-7.965-.192l-.355-.035" style="stroke:none;fill-rule:nonzero;fill:#c1ff72;fill-opacity:1"/><path d="M12.227 104.86v.003a.85.85 0 0 0 .746.856c1.41.183 4.445.367 7.054.129.067-.008.403-.059.493-.516.015-.07.015-.176.015-.262l-.082.004c-2.652.133-5.34.067-7.98-.191Zm5.07 1.308c-1.766 0-3.414-.121-4.348-.242a1.068 1.068 0 0 1-.933-1.067 1.65 1.65 0 0 0 .004-.117c0-.027.011-.055.035-.074.02-.02.05-.031.078-.027l.36.035c2.632.258 5.308.324 7.948.191l.188-.008a.102.102 0 0 1 .11.098c0 .008.015.262-.012.414-.094.465-.426.66-.68.684-.895.082-1.836.113-2.75.113" style="stroke:none;fill-rule:nonzero;fill:#000;fill-opacity:1"/></g><path d="M16.078 104.102a.103.103 0 0 1-.074-.028.109.109 0 0 1 0-.148l1.012-1.016a.097.097 0 0 1 .144 0 .097.097 0 0 1 0 .145l-1.008 1.015a.092.092 0 0 1-.074.032M17.07 104.207a.094.094 0 0 1-.07-.027.105.105 0 0 1-.004-.149l.805-.84a.105.105 0 0 1 .148-.004c.04.04.043.106.004.145l-.808.844a.092.092 0 0 1-.075.031M10.406 70.156c.063.27-.43 2.34-.277 3.98.242 2.626-.176 4.005-1.418 6.966-1.203 2.87-4.074 5.617-5.844 17.039a.944.944 0 0 0 .934 1.09h1.465c.359 0 .691-.208.847-.528.942-1.906 3.848-7.539 4.989-9.656 1.335-2.48 5.156-8.7 5.347-11.66.18-2.793-.066-6.778-.094-7.223a.043.043 0 0 0-.043-.043l-5.906.035" style="stroke:none;fill-rule:nonzero;fill:#000;fill-opacity:1"/><path d="M18.629 69.395s3.555 7.175 1.582 15.89c-1.426 6.305-3.473 13.34-4.133 15.344a.966.966 0 0 1-.91.664l-1.602.012a.966.966 0 0 1-.964-1.07c.37-3.325 1.511-14.087 1.386-16.684-.203-4.278-1.308-6.031-1.566-9.04-.277-3.28.441-4.988.441-4.988l5.766-.128" style="stroke:none;fill-rule:nonzero;fill:#000;fill-opacity:1"/><path d="M19.723 74.445c-1.891 0-2.438-1.675-2.442-1.691-.015-.055.012-.113.067-.129a.103.103 0 0 1 .132.066c.02.067.536 1.637 2.399 1.543.058 0 .105.043.11.098 0 .059-.044.11-.102.11-.055.003-.11.003-.164.003M13.89 84.543h-.007a.105.105 0 0 1-.098-.113c.195-2.477-.367-4.442-.914-6.344-.453-1.582-.879-3.07-.879-4.785 0-.059.047-.106.106-.106.058 0 .105.047.105.106-.004 1.683.422 3.164.867 4.726.551 1.918 1.121 3.907.922 6.422a.105.105 0 0 1-.101.094M16.8 38.25c.09-.164.188-.363.243-.707l.488-2.66a.368.368 0 0 0-.723-.14l-.214 1.023a.253.253 0 0 1-.43.152c-.473-.48-.586-1.898-.586-1.898s.012-.547-.144-.715l-.043-.043c-.168-.172-.47-.09-.547.144l-.746 2.297c-.098.293-.09.606.015.883l.504 1.246c.102.3-.332 1.441-.914 2.742a26.387 26.387 0 0 0-2.316 11.13c.039 2.886.12 5.706.285 5.862.355.332 3.531-2.832 3.898-3.152.043-.035-.418-4.586-.234-8.66.148-3.219.953-6.16.976-6.2l.489-1.304" style="stroke:none;fill-rule:nonzero;fill:#c1ff72;fill-opacity:1"/><path d="M16.313 39.555Zm-4.567 17.933c.043.008.29-.023 1.41-.988a52.133 52.133 0 0 0 1.922-1.766l.39-.37c0-.09-.019-.337-.038-.637-.102-1.45-.34-4.844-.196-7.977.145-3.137.895-5.977.98-6.23l.49-1.305c.003-.004.003-.008.007-.012.094-.176.18-.36.23-.68l.489-2.656a.267.267 0 0 0-.203-.304.255.255 0 0 0-.2.035.251.251 0 0 0-.117.164l-.215 1.023a.35.35 0 0 1-.238.29.348.348 0 0 1-.367-.087c-.496-.5-.613-1.902-.617-1.96v-.012c.007-.211-.028-.547-.114-.641l-.043-.04a.19.19 0 0 0-.195-.054.23.23 0 0 0-.176.16l-.746 2.293c-.09.27-.086.559.012.813l.504 1.242c.066.195.035.691-.918 2.828A26.126 26.126 0 0 0 11.492 51.7c.067 4.836.195 5.668.254 5.79Zm-.012.2a.184.184 0 0 1-.132-.047c-.079-.075-.243-.227-.317-5.938-.055-3.844.727-7.601 2.32-11.172.899-2.008.961-2.535.915-2.668l-.5-1.238c-.118-.3-.125-.64-.02-.957l.746-2.293a.444.444 0 0 1 .328-.297.41.41 0 0 1 .39.11l.044.042c.176.188.176.672.172.786.008.093.129 1.394.558 1.828.04.039.098.054.153.035a.153.153 0 0 0 .101-.125l.215-1.035a.486.486 0 0 1 .207-.297.448.448 0 0 1 .36-.063.47.47 0 0 1 .359.543l-.488 2.657c-.055.343-.153.55-.25.734l-.485 1.297-.004.004c-.02.07-.816 2.914-.965 6.164-.144 3.12.094 6.508.196 7.953.05.738.05.738.004.781-.063.055-.211.196-.418.39-2.106 2.005-3.094 2.806-3.489 2.806" style="stroke:none;fill-rule:nonzero;fill:#000;fill-opacity:1"/><path d="m18.426 63.453-3.371-7.973c-.067-4.464.484-7.402.484-7.402l-4.152-.437-.543 1.187c-1.461 3.215-1.93 6.387-1.23 10.168.144 1.02.48 2.04.613 3.41.351 3.696-.262 8.805-.262 8.805l9.984.59c.219-3.395-1.242-6.125-1.523-8.348" style="stroke:none;fill-rule:nonzero;fill:#c1ff72;fill-opacity:1"/><path d="m10.082 71.113 9.77.578c.117-2.125-.426-3.992-.907-5.64-.265-.914-.52-1.778-.62-2.57l-3.364-7.958c-.004-.015-.008-.027-.008-.039-.058-3.949.367-6.738.465-7.316l-3.969-.418-.511 1.121c-1.516 3.34-1.895 6.457-1.223 10.106.058.414.148.82.242 1.253.137.63.293 1.344.371 2.168.32 3.364-.16 7.95-.246 8.715Zm9.867.79h-.008l-9.98-.59a.103.103 0 0 1-.074-.036.103.103 0 0 1-.024-.082c.004-.05.606-5.14.258-8.777-.074-.813-.223-1.488-.367-2.14-.094-.438-.184-.852-.242-1.266-.68-3.692-.301-6.844 1.238-10.227l.54-1.191a.108.108 0 0 1 .105-.059l4.156.438c.027.004.054.02.074.043a.1.1 0 0 1 .016.082c-.004.027-.547 2.968-.48 7.363l3.362 7.953c.004.008.004.016.008.027.098.782.348 1.641.614 2.555.492 1.688 1.05 3.606.906 5.809a.1.1 0 0 1-.102.097" style="stroke:none;fill-rule:nonzero;fill:#000;fill-opacity:1"/><path d="m10.191 59.828 3.16.524 1.157 1.984a34.965 34.965 0 0 1 2.637 5.527c.558 1.512 1.414 2.977 2.367 4.2l-4.66.46-4.66-.496c.554-3.468.675-6.992.359-10.488a5.917 5.917 0 0 0-.176-1.008l-.184-.703" style="stroke:none;fill-rule:nonzero;fill:#000;fill-opacity:1"/><path d="M18.883 69.531c2.531 1.469 8.808 2.73 8.969 2.996.668 1.094 2.98 1.692 4.375 1.63.289-.016.375-.4.125-.54-.426-.234-.997-.637-1.633-1.305-.028-.03 0-.078.043-.07a3.1 3.1 0 0 0 .734.059c.36-.024.649-.188.328-.336-1.16-.52-1.86-.633-2.215-.64a3.631 3.631 0 0 1-.918-.145c-1.156-.344-3.05-1.188-4.628-1.93-1.77-.832-2.977-2.383-3.918-4.098-1.106-2.004-1.43-4.007-1.43-4.007l-4.102 1.453s.953 5.011 4.27 6.933" style="stroke:none;fill-rule:nonzero;fill:#c1ff72;fill-opacity:1"/><path d="M27.773 72.594Zm-8.84-3.153c1.645.957 4.864 1.817 6.993 2.387 1.57.418 1.945.527 2.015.645.653 1.066 2.93 1.636 4.282 1.578a.174.174 0 0 0 .168-.137.176.176 0 0 0-.09-.203c-.559-.313-1.117-.758-1.656-1.324a.155.155 0 0 1-.024-.172.144.144 0 0 1 .16-.074c.157.027.453.078.707.058a.82.82 0 0 0 .36-.097.223.223 0 0 0-.067-.04c-1.12-.507-1.804-.624-2.176-.636a3.544 3.544 0 0 1-.945-.149c-1.195-.355-3.183-1.25-4.64-1.933-1.551-.73-2.813-2.047-3.97-4.14-.945-1.716-1.327-3.454-1.417-3.923l-3.903 1.383c.149.672 1.207 5.04 4.204 6.777Zm13.094 4.82c-1.414 0-3.593-.597-4.257-1.671-.118-.086-.985-.317-1.899-.563-2.14-.574-5.371-1.437-7.039-2.406-3.32-1.922-4.312-6.953-4.32-7.004a.098.098 0 0 1 .066-.117l4.102-1.453a.096.096 0 0 1 .086.008.101.101 0 0 1 .05.074c.004.02.336 2.012 1.418 3.973 1.133 2.054 2.364 3.343 3.871 4.054 1.454.684 3.43 1.57 4.618 1.922.277.086.574.133.886.14.395.012 1.106.134 2.258.653.184.086.211.188.195.258-.03.176-.32.258-.558.277a3.119 3.119 0 0 1-.582-.031c.484.488.98.875 1.48 1.152.157.09.23.258.188.434a.376.376 0 0 1-.36.297c-.066.004-.132.004-.203.004" style="stroke:none;fill-rule:nonzero;fill:#000;fill-opacity:1"/><path d="M13.887 54.512a4.42 4.42 0 0 1 1.797-.063c.82.145 1.593.543 2.168 1.301 1.085 1.441 2.37 6.797 2.37 6.797l-5.984 2.039s-1.23-2.313-1.976-4.617l1.625-5.457" style="stroke:none;fill-rule:nonzero;fill:#c1ff72;fill-opacity:1"/><path d="M14.238 64.688a.1.1 0 0 1-.09-.055c-.011-.024-1.246-2.344-1.984-4.633a.105.105 0 0 1 .066-.133.106.106 0 0 1 .13.067c.66 2.039 1.71 4.101 1.93 4.523l5.808-1.977c-.176-.714-1.344-5.363-2.328-6.667-.52-.684-1.227-1.106-2.102-1.262a.108.108 0 0 1-.086-.121.109.109 0 0 1 .121-.086c.918.164 1.688.629 2.23 1.343 1.087 1.442 2.337 6.618 2.387 6.836a.099.099 0 0 1-.066.122l-5.98 2.039a.108.108 0 0 1-.036.004" style="stroke:none;fill-rule:nonzero;fill:#000;fill-opacity:1"/><path d="M14.594 54.23s-5.926-.097-2.582 6.61l-1.446.305s-1.691-4.825-.265-6.684c1.402-1.828 3.777-1.137 3.777-1.137l.516.906" style="stroke:none;fill-rule:nonzero;fill:#000;fill-opacity:1"/><path d="M18.727 56.797s-6.063-2.121-5.633 5.363l-1.375-.762s.066-4.605 2.433-5.609c2.512-1.066 4.02-.281 4.02-.281l.555 1.289" style="stroke:none;fill-rule:nonzero;fill:#000;fill-opacity:1"/><path d="m15.688 54.41-.286-1.488a.32.32 0 0 1 .2-.317l.953-.363a.285.285 0 0 0 .183-.3l-.117-1.192.367-.344a.07.07 0 0 0 .004-.101l-.625-.703c-.203-.27-.422-.918-.582-.868 0 0-3.422-.265-3.527 1.446-.016.25.066.492.219.691l.316.41c.32.414.496.93.46 1.453-.007.11-.12.809-.198 1.274a1.11 1.11 0 0 1-.39.668c-.259.215-.575.484-.52.5 0 0 .37.324.976.547 1.074.394 2.426.277 3.383-.352 0 0-.813-.668-.817-.96" style="stroke:none;fill-rule:nonzero;fill:#c1ff72;fill-opacity:1"/><path d="M12.281 55.152c.13.098.442.313.875.473 1.02.375 2.274.266 3.172-.266-.242-.21-.726-.664-.742-.937l-.285-1.48c-.004-.008-.004-.012-.004-.016a.421.421 0 0 1 .265-.414l.958-.367a.184.184 0 0 0 .117-.192l-.117-1.191a.104.104 0 0 1 .03-.086l.345-.324-.602-.684c-.09-.113-.172-.273-.254-.43-.066-.136-.184-.36-.242-.398h-.02c-.023 0-2.16-.16-3.047.61-.23.202-.351.445-.37.737a.946.946 0 0 0 .199.622l.316.41c.348.453.52.992.484 1.523-.007.11-.117.758-.203 1.281-.05.29-.199.547-.426.735-.27.222-.394.336-.449.394Zm2.16.899c-.464 0-.93-.074-1.355-.23-.617-.227-.992-.551-1.012-.567a.131.131 0 0 1-.039-.063c-.012-.07-.023-.113.563-.593a.994.994 0 0 0 .351-.61c.125-.722.2-1.183.203-1.261a2.064 2.064 0 0 0-.441-1.383l-.316-.41a1.136 1.136 0 0 1-.243-.758c.024-.348.172-.645.446-.883.918-.797 2.957-.676 3.18-.66.167-.031.292.207.449.512.074.148.152.296.226.39l.617.7c.067.07.059.18-.011.245l-.329.313.114 1.137a.402.402 0 0 1-.25.41l-.957.363a.22.22 0 0 0-.133.207l.285 1.48a.042.042 0 0 1 .004.02c0 .153.406.574.777.88a.11.11 0 0 1 .04.085.111.111 0 0 1-.047.082c-.594.39-1.36.594-2.122.594" style="stroke:none;fill-rule:nonzero;fill:#000;fill-opacity:1"/><path d="M15.805 46.133c-.778-.012.234.75-2.676.027-1.156-.285-.52 1.031-.82.957-1.11-.27-1.07-.262-1.602-.097-.352.105-.55.773-.465 1.257.117.645 1.172 1.926 1.988 2.903.418.504 1.329.52 1.45-.285.035-.223-.594-.672-.352-1.032.45-.656.785.274 1.207-.015.406-.278.57-.453.992-.868.516-.5 1.43.215 1.7-.875.14-.57-.356-1.957-1.422-1.972M26.309 25.621a.954.954 0 0 0 0 1.906c.527 0 .953-.43.953-.953a.954.954 0 0 0-.953-.953Zm0 2.113c-.637 0-1.16-.52-1.16-1.16a1.16 1.16 0 1 1 1.16 1.16M36.418 21.89a.114.114 0 0 1-.074-.03l-.453-.45a.109.109 0 0 1 0-.148.102.102 0 0 1 .148 0l.453.453a.104.104 0 0 1-.074.176M38.004 23.477a.107.107 0 0 1-.074-.032l-.453-.453a.109.109 0 0 1 0-.148.109.109 0 0 1 .148 0l.453.453c.04.043.04.105 0 .148a.107.107 0 0 1-.074.032M35.965 23.477a.114.114 0 0 1-.074-.032.109.109 0 0 1 0-.148l.453-.453c.043-.04.11-.04.148 0 .04.043.04.11 0 .148l-.453.453a.107.107 0 0 1-.074.032M37.55 21.89a.114.114 0 0 1-.073-.03.104.104 0 0 1 0-.145l.453-.453a.102.102 0 0 1 .148 0c.04.039.04.105 0 .148l-.453.45a.107.107 0 0 1-.074.03M6.57 28.434a.104.104 0 0 1-.105-.102v-.64c0-.06.047-.106.105-.106.055 0 .102.047.102.105v.641a.103.103 0 0 1-.102.102M6.57 30.676a.105.105 0 0 1-.105-.106v-.64c0-.059.047-.102.105-.102a.1.1 0 0 1 .102.102v.64a.104.104 0 0 1-.102.106M5.77 29.234h-.641a.105.105 0 0 1-.106-.105c0-.055.047-.102.106-.102h.64a.103.103 0 0 1 0 .207M8.008 29.234H7.37a.104.104 0 0 1-.105-.101c0-.059.046-.106.105-.106h.637c.058 0 .105.047.105.106a.104.104 0 0 1-.105.101M46.285 77.79c-.82 0-1.492.667-1.492 1.491a1.492 1.492 0 1 0 1.492-1.492Zm0 3.19a1.7 1.7 0 1 1 .003-3.4 1.7 1.7 0 0 1-.003 3.4" style="stroke:none;fill-rule:nonzero;fill:#000;fill-opacity:1"/><g style="fill:#004aad;fill-opacity:1"><path d="M32.75-25.734h6.14l-9.812 25.5c-.055.156-.18.234-.375.234-.2 0-.324-.078-.375-.234L19.422-23.61 10.516-.234c-.055.156-.18.234-.375.234-.188 0-.313-.078-.375-.234L0-25.734h6.14l3.985 10.843 6.266-16.39c.05-.164.172-.25.359-.25h5.36c.175 0 .304.086.39.25l6.234 16.39Zm0 0" style="stroke:none" transform="translate(91.981 86.97)"/></g><g style="fill:#004aad;fill-opacity:1"><path d="M12.844-5.406c.289 0 .437.12.437.36V-.36c0 .242-.148.359-.437.359H.438C.145 0 0-.117 0-.36v-4.687c0-.238.145-.36.438-.36h3.234V-31.53h6.015v26.125Zm0 0" style="stroke:none" transform="translate(132.797 86.97)"/></g><g style="fill:#004aad;fill-opacity:1"><path d="M26.094-31.531c.281 0 .422.12.422.36V-.36c0 .242-.141.359-.422.359H20.89a.878.878 0 0 1-.188-.031c-.094-.032-.152-.063-.172-.094l-14.5-20.766v13.328H0v-23.609c0-.238.129-.36.39-.36h5.25c.051 0 .114.012.188.032.082.012.133.043.156.094l14.547 20.765v-20.53c0-.24.157-.36.469-.36Zm0 0" style="stroke:none" transform="translate(146.744 86.97)"/></g><g style="fill:#004aad;fill-opacity:1"><path d="M5.594-31.531c1.52 0 3.133.11 4.843.328 1.708.21 3.364.617 4.97 1.219a13.973 13.973 0 0 1 4.359 2.64c1.3 1.157 2.336 2.672 3.109 4.547.77 1.875 1.156 4.219 1.156 7.031 0 2.711-.383 4.993-1.14 6.844-.762 1.856-1.79 3.367-3.078 4.531a14.238 14.238 0 0 1-4.344 2.72A21.252 21.252 0 0 1 10.5-.345C8.8-.114 7.164 0 5.594 0H.437C.146 0 0-.117 0-.36v-12.374h6.031v6.937a26.59 26.59 0 0 0 2.672-.047 14.27 14.27 0 0 0 3.156-.593A9.534 9.534 0 0 0 14.875-8c.938-.707 1.688-1.691 2.25-2.953.563-1.258.844-2.863.844-4.813 0-2.488-.524-4.488-1.563-6-1.031-1.507-2.449-2.586-4.25-3.234-1.804-.645-3.844-.898-6.125-.766v6.97H0v-12.376c0-.238.145-.36.438-.36Zm0 0" style="stroke:none" transform="translate(174.598 86.97)"/></g><g style="fill:#004aad;fill-opacity:1"><path d="M18.125-15.688c0 .813-.281 1.512-.844 2.094-.562.574-1.265.86-2.11.86a2.876 2.876 0 0 1-2.093-.86 2.876 2.876 0 0 1-.86-2.094c0-.832.286-1.535.86-2.109.582-.582 1.281-.875 2.094-.875.844 0 1.547.293 2.11.875.562.574.843 1.277.843 2.11Zm12.219-.109c0 1.969-.32 3.89-.953 5.766a15.725 15.725 0 0 1-2.828 5.094c-1.262 1.511-2.84 2.714-4.735 3.609C19.941-.441 17.734 0 15.203 0c-2.543 0-4.765-.441-6.672-1.328-1.906-.895-3.492-2.098-4.75-3.61A15.84 15.84 0 0 1 .937-10.03 18.117 18.117 0 0 1 0-15.797c0-1.969.313-3.883.938-5.75a15.34 15.34 0 0 1 2.843-5.047c1.258-1.5 2.844-2.695 4.75-3.593 1.906-.895 4.13-1.344 6.672-1.344 2.531 0 4.738.449 6.625 1.343 1.895.899 3.473 2.094 4.735 3.594a15.231 15.231 0 0 1 2.828 5.047c.632 1.867.953 3.781.953 5.75Zm-5.907.11c0-1.282-.199-2.532-.593-3.75a10.854 10.854 0 0 0-1.735-3.313 8.15 8.15 0 0 0-2.875-2.344c-1.156-.582-2.5-.875-4.03-.875-1.544 0-2.892.293-4.048.875A8.435 8.435 0 0 0 8.25-22.75a10.212 10.212 0 0 0-1.734 3.313 12.68 12.68 0 0 0-.563 3.75c0 1.261.188 2.496.563 3.703a10.18 10.18 0 0 0 1.734 3.28 8.719 8.719 0 0 0 2.906 2.329c1.156.574 2.504.86 4.047.86 1.531 0 2.875-.286 4.031-.86a8.414 8.414 0 0 0 2.875-2.328 10.826 10.826 0 0 0 1.735-3.281c.394-1.207.593-2.442.593-3.704Zm0 0" style="stroke:none" transform="translate(199.852 86.97)"/></g><g style="fill:#004aad;fill-opacity:1"><path d="M32.75-25.734h6.14l-9.812 25.5c-.055.156-.18.234-.375.234-.2 0-.324-.078-.375-.234L19.422-23.61 10.516-.234c-.055.156-.18.234-.375.234-.188 0-.313-.078-.375-.234L0-25.734h6.14l3.985 10.843 6.266-16.39c.05-.164.172-.25.359-.25h5.36c.175 0 .304.086.39.25l6.234 16.39Zm0 0" style="stroke:none" transform="translate(231.686 86.97)"/></g><g style="fill:#004aad;fill-opacity:1"><path d="M14.469-17.5c1.644.762 2.906 1.871 3.781 3.328.883 1.461 1.328 3.121 1.328 4.985 0 1.98-.469 3.652-1.406 5.015a8.954 8.954 0 0 1-3.625 3.11A10.794 10.794 0 0 1 9.812 0h-.046v-5.672h.046c1.051 0 1.97-.32 2.75-.969.79-.644 1.188-1.492 1.188-2.546 0-.782-.203-1.446-.61-2a4.364 4.364 0 0 0-1.515-1.297c-.605-.32-1.21-.493-1.813-.516-.136 0-.664-.047-1.578-.14-.918-.094-1.953-.4-3.109-.922-1.637-.758-2.902-1.817-3.797-3.172C.441-18.586 0-20.187 0-22.031c0-1.969.46-3.66 1.39-5.078a9.463 9.463 0 0 1 3.657-3.266c1.5-.77 3.086-1.156 4.766-1.156 1.812 0 3.437.375 4.874 1.125a8.822 8.822 0 0 1 3.454 3.156c.851 1.355 1.297 2.922 1.328 4.703.02.055-.016.121-.11.203a.442.442 0 0 1-.328.125H14.11a.428.428 0 0 1-.296-.125c-.094-.082-.141-.148-.141-.203-.024-1.125-.418-1.953-1.188-2.484-.761-.54-1.652-.813-2.671-.813-1.075 0-2 .324-2.782.969-.773.637-1.156 1.586-1.156 2.844 0 1.136.406 2 1.219 2.593a4.535 4.535 0 0 0 2.718.875c.083 0 .344.016.782.047.445.024 1.02.106 1.719.25a9.365 9.365 0 0 1 2.156.766Zm0 0" style="stroke:none" transform="translate(272.502 86.97)"/></g><g style="fill:#000;fill-opacity:1"><path d="M4.906-8.188c.57 0 1.125.086 1.657.25.53.157 1 .407 1.406.75.414.336.742.766.984 1.297.25.532.375 1.168.375 1.907 0 .687-.101 1.273-.297 1.75-.199.48-.465.882-.797 1.203a4.229 4.229 0 0 1-1.078.765 4.646 4.646 0 0 1-1.172.391c-.386.07-.746.11-1.078.11-.312 0-.668-.04-1.062-.11a4.86 4.86 0 0 1-1.172-.39 3.748 3.748 0 0 1-1.078-.766 3.544 3.544 0 0 1-.782-1.203C.613-2.711.516-3.297.516-3.984c0-.739.117-1.375.359-1.907.238-.53.563-.96.969-1.296.414-.344.89-.594 1.422-.75a5.532 5.532 0 0 1 1.64-.25Zm0 8.22c.364 0 .75-.052 1.157-.157a3.068 3.068 0 0 0 1.125-.594c.351-.281.64-.68.859-1.203.219-.531.328-1.219.328-2.062 0-.664-.078-1.227-.234-1.688-.157-.469-.368-.848-.625-1.14-.25-.301-.532-.536-.844-.704a3.194 3.194 0 0 0-.938-.359 4.136 4.136 0 0 0-.828-.094c-.242 0-.515.032-.828.094-.305.063-.61.184-.922.36a3.067 3.067 0 0 0-.844.702c-.261.293-.468.672-.624 1.141-.157.461-.235 1.024-.235 1.688 0 .843.11 1.53.328 2.062.219.524.504.922.86 1.203.351.281.726.48 1.125.594.406.105.785.156 1.14.156Zm0 0" style="stroke:none" transform="translate(94.134 105.06)"/></g><g style="fill:#000;fill-opacity:1"><path d="M6.469-8.031h.218v5.062C6.688-.832 5.649.234 3.579.234c-.387 0-.758-.047-1.11-.14A2.458 2.458 0 0 1 1.5-.375C1.219-.613.992-.941.828-1.359c-.168-.414-.25-.954-.25-1.61V-8.03H1.5v5.062c0 .188.008.406.031.656.02.25.067.508.14.766.083.25.204.484.36.703.164.219.39.403.672.547.281.137.633.203 1.063.203.363 0 .707-.039 1.03-.125.321-.082.61-.234.86-.453.258-.219.457-.52.594-.906.145-.383.219-.883.219-1.5Zm0 0" style="stroke:none" transform="translate(104.041 105.06)"/></g><g style="fill:#000;fill-opacity:1"><path d="M6.25.016H5.094L2.125-3.72h-.594V.016H.61v-8.047h2.437c.157 0 .376.027.657.078a3.3 3.3 0 0 1 .875.266c.29.136.535.34.734.609.208.262.313.61.313 1.047 0 .418-.078.765-.234 1.047-.157.273-.36.492-.61.656A2.67 2.67 0 0 1 4-3.953c-.273.086-.527.14-.766.172ZM1.531-7.813v3.875h.703c.75 0 1.336-.144 1.766-.437.438-.29.656-.79.656-1.5 0-.707-.187-1.207-.562-1.5-.367-.29-.875-.438-1.532-.438Zm0 0" style="stroke:none" transform="translate(111.35 105.06)"/></g><g style="fill:#000;fill-opacity:1"><path d="M5.297-8.031h.906V.016h-.906v-4.094H1.53V.016H.61v-8.047h.922v3.734h3.766Zm0 0" style="stroke:none" transform="translate(121.231 105.06)"/></g><g style="fill:#000;fill-opacity:1"><path d="M4.703-7.813H1.531v3.516h2.813v.219H1.53v3.875h3.172v.219H.61v-8.047h4.094Zm0 0" style="stroke:none" transform="translate(128.105 105.06)"/></g><g style="fill:#000;fill-opacity:1"><path d="M6.688.016 5.313-3.22H2.171L.75.016H.453l3.64-8.204h.079l3.5 8.204ZM2.28-3.422H5.22L3.78-6.812Zm0 0" style="stroke:none" transform="translate(133.34 105.06)"/></g><g style="fill:#000;fill-opacity:1"><path d="M6.25.016H5.094L2.125-3.72h-.594V.016H.61v-8.047h2.437c.157 0 .376.027.657.078a3.3 3.3 0 0 1 .875.266c.29.136.535.34.734.609.208.262.313.61.313 1.047 0 .418-.078.765-.234 1.047-.157.273-.36.492-.61.656A2.67 2.67 0 0 1 4-3.953c-.273.086-.527.14-.766.172ZM1.531-7.813v3.875h.703c.75 0 1.336-.144 1.766-.437.438-.29.656-.79.656-1.5 0-.707-.187-1.207-.562-1.5-.367-.29-.875-.438-1.532-.438Zm0 0" style="stroke:none" transform="translate(141.48 105.06)"/></g><g style="fill:#000;fill-opacity:1"><path d="M6.297-8.031v.219H3.813V.016h-.907v-7.829H.422v-.218Zm0 0" style="stroke:none" transform="translate(148.162 105.06)"/></g><g style="fill:#000;fill-opacity:1"><path d="M.703 1.047H.531l.953-2h.844Zm0 0" style="stroke:none" transform="translate(154.881 105.06)"/></g><g style="fill:#000;fill-opacity:1"><path d="M6.25-8.031h.234L3.922-3.75V.016H3V-3.5L.406-8.031H1.47l2.328 4.078Zm0 0" style="stroke:none" transform="translate(160.948 105.06)"/></g><g style="fill:#000;fill-opacity:1"><path d="M4.906-8.188c.57 0 1.125.086 1.657.25.53.157 1 .407 1.406.75.414.336.742.766.984 1.297.25.532.375 1.168.375 1.907 0 .687-.101 1.273-.297 1.75-.199.48-.465.882-.797 1.203a4.229 4.229 0 0 1-1.078.765 4.646 4.646 0 0 1-1.172.391c-.386.07-.746.11-1.078.11-.312 0-.668-.04-1.062-.11a4.86 4.86 0 0 1-1.172-.39 3.748 3.748 0 0 1-1.078-.766 3.544 3.544 0 0 1-.782-1.203C.613-2.711.516-3.297.516-3.984c0-.739.117-1.375.359-1.907.238-.53.563-.96.969-1.296.414-.344.89-.594 1.422-.75a5.532 5.532 0 0 1 1.64-.25Zm0 8.22c.364 0 .75-.052 1.157-.157a3.068 3.068 0 0 0 1.125-.594c.351-.281.64-.68.859-1.203.219-.531.328-1.219.328-2.062 0-.664-.078-1.227-.234-1.688-.157-.469-.368-.848-.625-1.14-.25-.301-.532-.536-.844-.704a3.194 3.194 0 0 0-.938-.359 4.136 4.136 0 0 0-.828-.094c-.242 0-.515.032-.828.094-.305.063-.61.184-.922.36a3.067 3.067 0 0 0-.844.702c-.261.293-.468.672-.624 1.141-.157.461-.235 1.024-.235 1.688 0 .843.11 1.53.328 2.062.219.524.504.922.86 1.203.351.281.726.48 1.125.594.406.105.785.156 1.14.156Zm0 0" style="stroke:none" transform="translate(167.86 105.06)"/></g><g style="fill:#000;fill-opacity:1"><path d="M6.469-8.031h.218v5.062C6.688-.832 5.649.234 3.579.234c-.387 0-.758-.047-1.11-.14A2.458 2.458 0 0 1 1.5-.375C1.219-.613.992-.941.828-1.359c-.168-.414-.25-.954-.25-1.61V-8.03H1.5v5.062c0 .188.008.406.031.656.02.25.067.508.14.766.083.25.204.484.36.703.164.219.39.403.672.547.281.137.633.203 1.063.203.363 0 .707-.039 1.03-.125.321-.082.61-.234.86-.453.258-.219.457-.52.594-.906.145-.383.219-.883.219-1.5Zm0 0" style="stroke:none" transform="translate(177.767 105.06)"/></g><g style="fill:#000;fill-opacity:1"><path d="M6.25.016H5.094L2.125-3.72h-.594V.016H.61v-8.047h2.437c.157 0 .376.027.657.078a3.3 3.3 0 0 1 .875.266c.29.136.535.34.734.609.208.262.313.61.313 1.047 0 .418-.078.765-.234 1.047-.157.273-.36.492-.61.656A2.67 2.67 0 0 1 4-3.953c-.273.086-.527.14-.766.172ZM1.531-7.813v3.875h.703c.75 0 1.336-.144 1.766-.437.438-.29.656-.79.656-1.5 0-.707-.187-1.207-.562-1.5-.367-.29-.875-.438-1.532-.438Zm0 0" style="stroke:none" transform="translate(185.076 105.06)"/></g><g style="fill:#000;fill-opacity:1"><path d="M5.297-8.031h.906V.016h-.906v-4.094H1.53V.016H.61v-8.047h.922v3.734h3.766Zm0 0" style="stroke:none" transform="translate(194.957 105.06)"/></g><g style="fill:#000;fill-opacity:1"><path d="M4.906-8.188c.57 0 1.125.086 1.657.25.53.157 1 .407 1.406.75.414.336.742.766.984 1.297.25.532.375 1.168.375 1.907 0 .687-.101 1.273-.297 1.75-.199.48-.465.882-.797 1.203a4.229 4.229 0 0 1-1.078.765 4.646 4.646 0 0 1-1.172.391c-.386.07-.746.11-1.078.11-.312 0-.668-.04-1.062-.11a4.86 4.86 0 0 1-1.172-.39 3.748 3.748 0 0 1-1.078-.766 3.544 3.544 0 0 1-.782-1.203C.613-2.711.516-3.297.516-3.984c0-.739.117-1.375.359-1.907.238-.53.563-.96.969-1.296.414-.344.89-.594 1.422-.75a5.532 5.532 0 0 1 1.64-.25Zm0 8.22c.364 0 .75-.052 1.157-.157a3.068 3.068 0 0 0 1.125-.594c.351-.281.64-.68.859-1.203.219-.531.328-1.219.328-2.062 0-.664-.078-1.227-.234-1.688-.157-.469-.368-.848-.625-1.14-.25-.301-.532-.536-.844-.704a3.194 3.194 0 0 0-.938-.359 4.136 4.136 0 0 0-.828-.094c-.242 0-.515.032-.828.094-.305.063-.61.184-.922.36a3.067 3.067 0 0 0-.844.702c-.261.293-.468.672-.624 1.141-.157.461-.235 1.024-.235 1.688 0 .843.11 1.53.328 2.062.219.524.504.922.86 1.203.351.281.726.48 1.125.594.406.105.785.156 1.14.156Zm0 0" style="stroke:none" transform="translate(201.83 105.06)"/></g><g style="fill:#000;fill-opacity:1"><path d="M8.781-8.188 9.734.017 8.813 0l-.75-6.438L4.765-.202h-.047L1.53-6.328.671.016H.454l1.125-8.204h.031l3.532 6.813 3.593-6.813Zm0 0" style="stroke:none" transform="translate(211.738 105.06)"/></g><g style="fill:#000;fill-opacity:1"><path d="M4.703-7.813H1.531v3.516h2.813v.219H1.53v3.875h3.172v.219H.61v-8.047h4.094Zm0 0" style="stroke:none" transform="translate(221.99 105.06)"/></g><g style="fill:#004aad;fill-opacity:1"><path d="M25.14-.594c.133.156.16.297.079.422C25.145-.055 25 0 24.78 0h-6.765c-.168 0-.29-.04-.36-.125L8.47-11.469c-.125.137-.422.461-.89.969-.462.512-1.013 1.133-1.657 1.86-.637.718-1.297 1.468-1.984 2.25-.68.773-1.32 1.5-1.922 2.187-.606.68-1.094 1.226-1.47 1.64C.18-2.144 0-1.937 0-1.937v-29.235c0-.238.145-.36.438-.36H5.64c.257 0 .39.122.39.36v14.344l11.86-14.578c.082-.082.203-.125.359-.125h6.422c.207 0 .348.07.422.203.082.137.054.265-.078.39L12.484-15.483Zm0 0" style="stroke:none" transform="translate(93.714 50.578)"/></g><g style="fill:#004aad;fill-opacity:1"><path d="M6.5-20.094h5.984V-.359c0 .242-.156.359-.468.359H6.937C6.646 0 6.5-.117 6.5-.36ZM.437-26.125c-.292 0-.437-.117-.437-.36v-4.687c0-.238.145-.36.438-.36h18.078c.289 0 .437.122.437.36v4.688c0 .242-.148.359-.437.359Zm0 0" style="stroke:none" transform="translate(120.228 50.578)"/></g></svg>